/* XPM */
static char * ShadeMixedButton_xpm[] = {
"80 25 2 1",
" 	c None",
".	c #FFFFFF",
"                                                                                ",
"                                                                                ",
"                                                                                ",
"                                                                                ",
"                                                                                ",
"                                                                                ",
"                    ...    ...  ..  ..   ... ......  ......                     ",
"                    ....  ....  ..  ... ...  ..      ..   ..                    ",
"                    ....  ....  ..   .....   ..      ..    ..                   ",
"                    ..........  ..    ....   ..      ..    ..                   ",
"                    .. .... ..  ..    ...    ......  ..    ..                   ",
"                    ..  ..  ..  ..   .....   ..      ..    ..                   ",
"                    ..  ..  ..  ..   .. ..   ..      ..    ..                   ",
"                    ..      ..  ..  ...  ..  ..      ..   ..                    ",
"                    ..      ..  ..  ..   ... ......  ......                     ",
"                                                                                ",
"                                                                                ",
"                                                                                ",
"                                                                                ",
"                                                                                ",
"                                                                                ",
"                                                                                ",
"                                                                                ",
"                                                                                ",
"                                                                                "};
