/* XPM */
static char * Shade3Button_xpm[] = {
"80 25 2 1",
" 	c None",
".	c #FFFFFF",
"                                                                                ",
"                                                                                ",
"                                                                                ",
"                                                                                ",
"                                                                                ",
"                                                                                ",
"              .....   ..    ..    ...    ......    ......       ....            ",
"             ..   .   ..    ..    ....   ..   ..   ..          .  ...           ",
"             ..       ..    ..   .....   ..    ..  ..              ..           ",
"             ....     ..    ..   .. ..   ..    ..  ..             ...           ",
"             ......   ........   .. ...  ..    ..  ......       ....            ",
"               .....  ..    ..  ...  ..  ..    ..  ..              ..           ",
"                 ...  ..    ..  .......  ..    ..  ..              ..           ",
"             .   ..   ..    ..  ..   ... ..   ..   ..          .   ..           ",
"             ......   ..    .. ...    .. ......    ......       ....            ",
"                                                                                ",
"                                                                                ",
"                                                                                ",
"                                                                                ",
"                                                                                ",
"                                                                                ",
"                                                                                ",
"                                                                                ",
"                                                                                ",
"                                                                                "};
